<svg xmlns="http://www.w3.org/2000/svg" width="1920" height="910" viewBox="0 0 1920 910" role="img" aria-label="Business consulting workspace">
  <defs>
    <linearGradient id="bg" x1="0" x2="1" y1="0" y2="1">
      <stop offset="0" stop-color="#c91e1e"/>
      <stop offset="0.55" stop-color="#a8191a"/>
      <stop offset="1" stop-color="#f2ded0"/>
    </linearGradient>
    <linearGradient id="paper" x1="0" x2="1" y1="0" y2="1">
      <stop offset="0" stop-color="#fffaf4"/>
      <stop offset="1" stop-color="#ead8ca"/>
    </linearGradient>
  </defs>
  <rect width="1920" height="910" fill="url(#bg)"/>
  <circle cx="1515" cy="190" r="360" fill="#fffaf4" opacity=".18"/>
  <circle cx="1670" cy="690" r="310" fill="#221c19" opacity=".12"/>
  <path d="M0 685 C310 570 515 745 826 610 C1115 486 1314 520 1600 430 C1742 385 1846 348 1920 330 L1920 910 L0 910 Z" fill="#fffaf4" opacity=".22"/>
  <g transform="translate(980 180) rotate(-5)">
    <rect x="0" y="0" width="610" height="420" rx="34" fill="url(#paper)" opacity=".97"/>
    <rect x="52" y="62" width="210" height="22" rx="11" fill="#c91e1e"/>
    <rect x="52" y="112" width="465" height="13" rx="7" fill="#bd9c8c"/>
    <rect x="52" y="145" width="365" height="13" rx="7" fill="#bd9c8c"/>
    <rect x="54" y="210" width="78" height="120" rx="12" fill="#c91e1e"/>
    <rect x="158" y="170" width="78" height="160" rx="12" fill="#221c19" opacity=".85"/>
    <rect x="262" y="128" width="78" height="202" rx="12" fill="#c91e1e" opacity=".72"/>
    <path d="M398 312 C430 256 462 248 496 202 C522 166 543 146 572 132" fill="none" stroke="#c91e1e" stroke-width="15" stroke-linecap="round"/>
    <circle cx="572" cy="132" r="18" fill="#c91e1e"/>
  </g>
  <g transform="translate(1180 560)">
    <rect x="0" y="0" width="420" height="110" rx="55" fill="#221c19" opacity=".16"/>
    <rect x="44" y="26" width="332" height="58" rx="29" fill="#fffaf4" opacity=".92"/>
    <circle cx="95" cy="55" r="19" fill="#c91e1e"/>
    <rect x="132" y="43" width="190" height="13" rx="7" fill="#c91e1e"/>
    <rect x="132" y="64" width="126" height="9" rx="5" fill="#bd9c8c"/>
  </g>
</svg>
